# xmcd
#
# Track frame offsets: 
#        150
#        13546
#        29181
#        39957
#        51828
#        64364
#        74155
#        85768
#        97714
#        110203
#        121063
#        131329
#        150142
#        163385
#        174368
#        184996
#        196223
#        206743
#        218526
#        231540
#        244928
#        257082
#
# Disc length: 3587 seconds
#
# Revision: 1
# Processed by: cddbd v1.5.2PL0 Copyright (c) Steve Scherf et al.
# Submitted via: ExactAudioCopy v0.95b2
#
DISCID=3b0e0116
DTITLE=Walter Jackson - IT'S ALL OVER and 10
DYEAR=2006
DGENRE=R&B
TTITLE0=It's All Over
TTITLE1=A Blossom Fell
TTITLE2=That's What Mama Say
TTITLE3=It Will Be The Last Time
TTITLE4=Opportunity
TTITLE5=I Don't Want To Suffer
TTITLE6=There Goes That Song Again
TTITLE7=What Would You Do
TTITLE8=Lee Cross
TTITLE9=Then Only Then
TTITLE10=This World Of Mine
TTITLE11=Funny (Not Much)
TTITLE12=Heartbreak Hour (Version 1)
TTITLE13=Anything Can Happen
TTITLE14=Blue Rose
TTITLE15=It's Hard to Believe
TTITLE16=Starting Tomorrow
TTITLE17=Dont Play With Love
TTITLE18=Tell The World
TTITLE19=You Gotta Give
TTITLE20=Heartbreak Hour (Version 2)
TTITLE21=It's Hard to Believe (Alternate)
EXTD=
EXTT0=
EXTT1=
EXTT2=
EXTT3=
EXTT4=
EXTT5=
EXTT6=
EXTT7=
EXTT8=
EXTT9=
EXTT10=
EXTT11=
EXTT12=
EXTT13=
EXTT14=
EXTT15=
EXTT16=
EXTT17=
EXTT18=
EXTT19=
EXTT20=
EXTT21=
PLAYORDER=
